<svg xmlns="http://www.w3.org/2000/svg" viewBox="0 0 1400 1700" role="img" aria-labelledby="title desc">
<title>Luma detail composition</title>
<desc>Abstract futuristic salon artwork for demo use.</desc>
<defs>
  <linearGradient id="bg" x1="0" y1="0" x2="1" y2="1">
    <stop offset="0%" stop-color="#09090b"/>
    <stop offset="55%" stop-color="#18131a"/>
    <stop offset="100%" stop-color="#2f2339"/>
  </linearGradient>
  <radialGradient id="glow1" cx="25%" cy="20%" r="50%">
    <stop offset="0%" stop-color="#ddb596" stop-opacity="0.9"/>
    <stop offset="100%" stop-color="#ddb596" stop-opacity="0"/>
  </radialGradient>
  <radialGradient id="glow2" cx="75%" cy="25%" r="45%">
    <stop offset="0%" stop-color="#8676ff" stop-opacity="0.7"/>
    <stop offset="100%" stop-color="#8676ff" stop-opacity="0"/>
  </radialGradient>
  <linearGradient id="line" x1="0" y1="0" x2="1" y2="1">
    <stop offset="0%" stop-color="#fff" stop-opacity="0.85"/>
    <stop offset="100%" stop-color="#fff" stop-opacity="0.08"/>
  </linearGradient>
  <filter id="blur"><feGaussianBlur stdDeviation="28"/></filter>
</defs>
<rect width="100%" height="100%" fill="url(#bg)"/>
<rect width="100%" height="100%" fill="url(#glow1)"/>
<rect width="100%" height="100%" fill="url(#glow2)"/>
<circle cx="1063" cy="1464" r="92" fill="none" stroke="rgba(255,255,255,0.084)" />
<circle cx="530" cy="705" r="129" fill="none" stroke="rgba(255,255,255,0.057)" />
<circle cx="686" cy="643" r="73" fill="none" stroke="rgba(255,255,255,0.111)" />
<circle cx="833" cy="456" r="118" fill="none" stroke="rgba(255,255,255,0.063)" />
<circle cx="1109" cy="1334" r="94" fill="none" stroke="rgba(255,255,255,0.106)" />
<circle cx="1138" cy="1070" r="177" fill="none" stroke="rgba(255,255,255,0.091)" />
<ellipse cx="950" cy="1133" rx="203" ry="150" fill="#ddb596" opacity="0.08" filter="url(#blur)"/>
<ellipse cx="12" cy="1020" rx="227" ry="154" fill="#8676ff" opacity="0.08" filter="url(#blur)"/>
<ellipse cx="534" cy="856" rx="251" ry="172" fill="#ddb596" opacity="0.08" filter="url(#blur)"/>
<ellipse cx="489" cy="391" rx="153" ry="187" fill="#8676ff" opacity="0.08" filter="url(#blur)"/>
<ellipse cx="887" cy="1004" rx="211" ry="174" fill="#ddb596" opacity="0.08" filter="url(#blur)"/>

<path d="M252.0,306.0 C 504.0,510.0 616.0,748.0 560.0,1054.0 C 532.0,1258.0 616.0,1411.0 784.0000000000001,1530.0" fill="none" stroke="url(#line)" stroke-width="3.6" opacity="0.8"/>
<path d="M1036.0,238.00000000000003 C 868.0,442.0 756.0,714.0 812.0,1020.0 C 854.0,1292.0 979.9999999999999,1428.0 1148.0,1530.0" fill="none" stroke="url(#line)" stroke-width="2.2" opacity="0.56"/>
<path d="M616.0,374.0 C 756.0,408.0 896.0,544.0 924.0,748.0 C 952.0000000000001,985.9999999999999 840.0,1224.0 686.0,1292.0 C 560.0,1054.0 532.0,646.0 616.0,374.0" fill="rgba(255,255,255,0.05)" stroke="rgba(255,255,255,0.28)"/>
<rect x="112.0" y="136.0" width="1176.0" height="1428.0" rx="44" fill="none" stroke="rgba(255,255,255,0.11)"/>

<g opacity="0.8">
  <text x="112.0" y="204.0" fill="rgba(255,255,255,0.70)" font-family="Inter, Arial, sans-serif" font-size="22" letter-spacing="8">LUMA</text>
  <text x="112.0" y="1564.0" fill="rgba(255,255,255,0.32)" font-family="Inter, Arial, sans-serif" font-size="18" letter-spacing="5">FICTIONAL DEMO VISUAL</text>
</g>
</svg>