<svg xmlns="http://www.w3.org/2000/svg" viewBox="0 0 1600 1000">
  <defs>
    <linearGradient id="bg" x1="0" y1="0" x2="1" y2="1">
      <stop offset="0%" stop-color="#120f0d"/>
      <stop offset="50%" stop-color="#2a1d16"/>
      <stop offset="100%" stop-color="#6f4631"/>
    </linearGradient>
    <radialGradient id="glow1" cx="25%" cy="30%" r="35%">
      <stop offset="0%" stop-color="#d9a582" stop-opacity="0.65"/>
      <stop offset="100%" stop-color="#d9a582" stop-opacity="0"/>
    </radialGradient>
    <radialGradient id="glow2" cx="80%" cy="20%" r="30%">
      <stop offset="0%" stop-color="#9f6548" stop-opacity="0.7"/>
      <stop offset="100%" stop-color="#9f6548" stop-opacity="0"/>
    </radialGradient>
    <filter id="blur"><feGaussianBlur stdDeviation="30"/></filter>
  </defs>
  <rect width="1600" height="1000" fill="url(#bg)"/>
  <rect width="1600" height="1000" fill="url(#glow1)"/>
  <rect width="1600" height="1000" fill="url(#glow2)"/>
  <g opacity="0.18">
    <circle cx="1180" cy="350" r="260" fill="#f2c3a3" filter="url(#blur)"/>
    <circle cx="420" cy="760" r="240" fill="#7b4f37" filter="url(#blur)"/>
  </g>
  <g fill="none" stroke="#f0d2bc" stroke-opacity="0.14">
    <path d="M0 790 C330 690, 510 840, 760 730 S1220 530, 1600 640" stroke-width="2"/>
    <path d="M0 860 C320 760, 540 900, 860 810 S1260 680, 1600 770" stroke-width="1.5"/>
  </g>
  <g transform="translate(980 180)">
    <rect x="0" y="0" width="430" height="560" rx="34" fill="#1b1512" fill-opacity="0.52" stroke="#f1ceb5" stroke-opacity="0.18"/>
    <circle cx="220" cy="150" r="82" fill="#d3a27f" fill-opacity="0.22"/>
    <path d="M160 250 C175 170, 270 160, 300 250 C310 290, 300 330, 300 370 C300 435, 255 470, 220 470 C185 470, 140 435, 140 370 C140 328, 130 290, 160 250 Z" fill="#f4dcc6" fill-opacity="0.18"/>
    <rect x="145" y="490" width="150" height="18" rx="9" fill="#f1ceb5" fill-opacity="0.18"/>
    <rect x="120" y="545" width="200" height="16" rx="8" fill="#f1ceb5" fill-opacity="0.12"/>
  </g>
  <text x="115" y="180" fill="#f8ece3" font-size="118" font-family="Georgia, 'Times New Roman', serif">Ritik</text>
  <text x="118" y="275" fill="#f2d9c7" font-size="36" letter-spacing="9" font-family="Arial, sans-serif">HAIR SALON DEMO</text>
  <text x="118" y="370" fill="#f8ece3" font-size="72" font-family="Georgia, 'Times New Roman', serif">Clean presence.</text>
  <text x="118" y="448" fill="#f8ece3" font-size="72" font-family="Georgia, 'Times New Roman', serif">Sharp style.</text>
  <text x="118" y="526" fill="#f8ece3" font-size="72" font-family="Georgia, 'Times New Roman', serif">Premium feel.</text>
  <text x="120" y="620" fill="#ead8cc" font-size="28" font-family="Arial, sans-serif">A concept visual for a modern salon website.</text>
</svg>