<svg xmlns="http://www.w3.org/2000/svg" viewBox="0 0 1100 900" role="img" aria-labelledby="title desc">
<title>Luma close detail</title>
<desc>Abstract futuristic salon artwork for demo use.</desc>
<defs>
  <linearGradient id="bg" x1="0" y1="0" x2="1" y2="1">
    <stop offset="0%" stop-color="#0a0a0b"/>
    <stop offset="55%" stop-color="#161317"/>
    <stop offset="100%" stop-color="#392824"/>
  </linearGradient>
  <radialGradient id="glow1" cx="25%" cy="20%" r="50%">
    <stop offset="0%" stop-color="#d5ad86" stop-opacity="0.9"/>
    <stop offset="100%" stop-color="#d5ad86" stop-opacity="0"/>
  </radialGradient>
  <radialGradient id="glow2" cx="75%" cy="25%" r="45%">
    <stop offset="0%" stop-color="#5eb1ff" stop-opacity="0.7"/>
    <stop offset="100%" stop-color="#5eb1ff" stop-opacity="0"/>
  </radialGradient>
  <linearGradient id="line" x1="0" y1="0" x2="1" y2="1">
    <stop offset="0%" stop-color="#fff" stop-opacity="0.85"/>
    <stop offset="100%" stop-color="#fff" stop-opacity="0.08"/>
  </linearGradient>
  <filter id="blur"><feGaussianBlur stdDeviation="28"/></filter>
</defs>
<rect width="100%" height="100%" fill="url(#bg)"/>
<rect width="100%" height="100%" fill="url(#glow1)"/>
<rect width="100%" height="100%" fill="url(#glow2)"/>
<circle cx="735" cy="506" r="172" fill="none" stroke="rgba(255,255,255,0.083)" />
<circle cx="667" cy="455" r="61" fill="none" stroke="rgba(255,255,255,0.061)" />
<circle cx="611" cy="160" r="157" fill="none" stroke="rgba(255,255,255,0.069)" />
<circle cx="307" cy="318" r="175" fill="none" stroke="rgba(255,255,255,0.105)" />
<circle cx="350" cy="345" r="197" fill="none" stroke="rgba(255,255,255,0.112)" />
<circle cx="740" cy="541" r="117" fill="none" stroke="rgba(255,255,255,0.085)" />
<ellipse cx="774" cy="168" rx="283" ry="204" fill="#d5ad86" opacity="0.08" filter="url(#blur)"/>
<ellipse cx="65" cy="550" rx="170" ry="196" fill="#d5ad86" opacity="0.08" filter="url(#blur)"/>
<ellipse cx="995" cy="194" rx="128" ry="205" fill="#d5ad86" opacity="0.08" filter="url(#blur)"/>
<ellipse cx="308" cy="824" rx="164" ry="228" fill="#d5ad86" opacity="0.08" filter="url(#blur)"/>
<ellipse cx="491" cy="634" rx="244" ry="127" fill="#5eb1ff" opacity="0.08" filter="url(#blur)"/>

<path d="M198.0,612.0 C 330.0,405.0 605.0,234.0 902.0,198.0" fill="none" stroke="url(#line)" stroke-width="4" opacity="0.85"/>
<path d="M110.0,702.0 C 374.0,513.0 660.0,378.0 990.0,270.0" fill="none" stroke="url(#line)" stroke-width="2.4" opacity="0.55"/>
<ellipse cx="594.0" cy="450.0" rx="198.0" ry="216.0" fill="rgba(255,255,255,0.05)" stroke="rgba(255,255,255,0.12)"/>
<path d="M484.0,306.0 C 528.0,270.0 594.0,270.0 638.0,315.0 C 704.0,387.0 693.0,522.0 594.0,603.0 C 517.0,540.0 473.0,423.0 484.0,306.0" fill="rgba(255,255,255,0.05)" stroke="#fff" stroke-opacity="0.25" />
<rect x="66.0" y="54.0" width="968.0" height="792.0" rx="34" fill="none" stroke="rgba(255,255,255,0.10)"/>

<g opacity="0.8">
  <text x="88.0" y="108.0" fill="rgba(255,255,255,0.70)" font-family="Inter, Arial, sans-serif" font-size="22" letter-spacing="8">LUMA</text>
  <text x="88.0" y="828.0" fill="rgba(255,255,255,0.32)" font-family="Inter, Arial, sans-serif" font-size="18" letter-spacing="5">FICTIONAL DEMO VISUAL</text>
</g>
</svg>