<svg xmlns="http://www.w3.org/2000/svg" viewBox="0 0 1400 1700" role="img" aria-labelledby="title desc">
<title>Ritik salon profile motion</title>
<desc>Abstract futuristic salon artwork for demo use.</desc>
<defs>
  <linearGradient id="bg" x1="0" y1="0" x2="1" y2="1">
    <stop offset="0%" stop-color="#09090b"/>
    <stop offset="55%" stop-color="#14121a"/>
    <stop offset="100%" stop-color="#282234"/>
  </linearGradient>
  <radialGradient id="glow1" cx="25%" cy="20%" r="50%">
    <stop offset="0%" stop-color="#f0c9a1" stop-opacity="0.9"/>
    <stop offset="100%" stop-color="#f0c9a1" stop-opacity="0"/>
  </radialGradient>
  <radialGradient id="glow2" cx="75%" cy="25%" r="45%">
    <stop offset="0%" stop-color="#9f7bff" stop-opacity="0.7"/>
    <stop offset="100%" stop-color="#9f7bff" stop-opacity="0"/>
  </radialGradient>
  <linearGradient id="line" x1="0" y1="0" x2="1" y2="1">
    <stop offset="0%" stop-color="#fff" stop-opacity="0.85"/>
    <stop offset="100%" stop-color="#fff" stop-opacity="0.08"/>
  </linearGradient>
  <filter id="blur"><feGaussianBlur stdDeviation="28"/></filter>
</defs>
<rect width="100%" height="100%" fill="url(#bg)"/>
<rect width="100%" height="100%" fill="url(#glow1)"/>
<rect width="100%" height="100%" fill="url(#glow2)"/>
<circle cx="1056" cy="942" r="98" fill="none" stroke="rgba(255,255,255,0.115)" />
<circle cx="1090" cy="151" r="165" fill="none" stroke="rgba(255,255,255,0.081)" />
<circle cx="910" cy="965" r="139" fill="none" stroke="rgba(255,255,255,0.076)" />
<circle cx="151" cy="500" r="126" fill="none" stroke="rgba(255,255,255,0.115)" />
<circle cx="498" cy="1020" r="171" fill="none" stroke="rgba(255,255,255,0.112)" />
<circle cx="906" cy="1052" r="119" fill="none" stroke="rgba(255,255,255,0.105)" />
<ellipse cx="220" cy="631" rx="143" ry="283" fill="#9f7bff" opacity="0.08" filter="url(#blur)"/>
<ellipse cx="741" cy="36" rx="241" ry="211" fill="#f0c9a1" opacity="0.08" filter="url(#blur)"/>
<ellipse cx="178" cy="1062" rx="156" ry="120" fill="#9f7bff" opacity="0.08" filter="url(#blur)"/>
<ellipse cx="1285" cy="271" rx="221" ry="296" fill="#9f7bff" opacity="0.08" filter="url(#blur)"/>
<ellipse cx="1201" cy="968" rx="200" ry="219" fill="#9f7bff" opacity="0.08" filter="url(#blur)"/>

<path d="M252.0,306.0 C 504.0,510.0 616.0,748.0 560.0,1054.0 C 532.0,1258.0 616.0,1411.0 784.0000000000001,1530.0" fill="none" stroke="url(#line)" stroke-width="3.6" opacity="0.8"/>
<path d="M1036.0,238.00000000000003 C 868.0,442.0 756.0,714.0 812.0,1020.0 C 854.0,1292.0 979.9999999999999,1428.0 1148.0,1530.0" fill="none" stroke="url(#line)" stroke-width="2.2" opacity="0.56"/>
<path d="M616.0,374.0 C 756.0,408.0 896.0,544.0 924.0,748.0 C 952.0000000000001,985.9999999999999 840.0,1224.0 686.0,1292.0 C 560.0,1054.0 532.0,646.0 616.0,374.0" fill="rgba(255,255,255,0.05)" stroke="rgba(255,255,255,0.28)"/>
<rect x="112.0" y="136.0" width="1176.0" height="1428.0" rx="44" fill="none" stroke="rgba(255,255,255,0.11)"/>

<g opacity="0.8">
  <text x="112.0" y="204.0" fill="rgba(255,255,255,0.70)" font-family="Inter, Arial, sans-serif" font-size="22" letter-spacing="8">RITIK</text>
  <text x="112.0" y="1564.0" fill="rgba(255,255,255,0.32)" font-family="Inter, Arial, sans-serif" font-size="18" letter-spacing="5">FICTIONAL DEMO VISUAL</text>
</g>
</svg>