<svg xmlns="http://www.w3.org/2000/svg" viewBox="0 0 1100 900" role="img" aria-labelledby="title desc">
<title>Ritik salon studio environment</title>
<desc>Abstract futuristic salon artwork for demo use.</desc>
<defs>
  <linearGradient id="bg" x1="0" y1="0" x2="1" y2="1">
    <stop offset="0%" stop-color="#0b0b0c"/>
    <stop offset="55%" stop-color="#171315"/>
    <stop offset="100%" stop-color="#32251f"/>
  </linearGradient>
  <radialGradient id="glow1" cx="25%" cy="20%" r="50%">
    <stop offset="0%" stop-color="#d9a87f" stop-opacity="0.9"/>
    <stop offset="100%" stop-color="#d9a87f" stop-opacity="0"/>
  </radialGradient>
  <radialGradient id="glow2" cx="75%" cy="25%" r="45%">
    <stop offset="0%" stop-color="#63b7f5" stop-opacity="0.7"/>
    <stop offset="100%" stop-color="#63b7f5" stop-opacity="0"/>
  </radialGradient>
  <linearGradient id="line" x1="0" y1="0" x2="1" y2="1">
    <stop offset="0%" stop-color="#fff" stop-opacity="0.85"/>
    <stop offset="100%" stop-color="#fff" stop-opacity="0.08"/>
  </linearGradient>
  <filter id="blur"><feGaussianBlur stdDeviation="28"/></filter>
</defs>
<rect width="100%" height="100%" fill="url(#bg)"/>
<rect width="100%" height="100%" fill="url(#glow1)"/>
<rect width="100%" height="100%" fill="url(#glow2)"/>
<circle cx="626" cy="94" r="112" fill="none" stroke="rgba(255,255,255,0.103)" />
<circle cx="683" cy="342" r="62" fill="none" stroke="rgba(255,255,255,0.094)" />
<circle cx="409" cy="96" r="182" fill="none" stroke="rgba(255,255,255,0.061)" />
<circle cx="512" cy="243" r="187" fill="none" stroke="rgba(255,255,255,0.08)" />
<circle cx="790" cy="306" r="171" fill="none" stroke="rgba(255,255,255,0.11)" />
<circle cx="950" cy="749" r="73" fill="none" stroke="rgba(255,255,255,0.097)" />
<ellipse cx="590" cy="327" rx="152" ry="175" fill="#63b7f5" opacity="0.08" filter="url(#blur)"/>
<ellipse cx="649" cy="334" rx="126" ry="244" fill="#d9a87f" opacity="0.08" filter="url(#blur)"/>
<ellipse cx="283" cy="709" rx="180" ry="245" fill="#63b7f5" opacity="0.08" filter="url(#blur)"/>
<ellipse cx="322" cy="340" rx="183" ry="270" fill="#d9a87f" opacity="0.08" filter="url(#blur)"/>
<ellipse cx="719" cy="678" rx="292" ry="217" fill="#63b7f5" opacity="0.08" filter="url(#blur)"/>

<path d="M88.0,648.0 C 308.00000000000006,360.0 638.0,225.0 1012.0,162.0" fill="none" stroke="url(#line)" stroke-width="3.4" opacity="0.75"/>
<path d="M176.0,774.0 C 396.0,504.00000000000006 748.0,414.0 990.0,306.0" fill="none" stroke="url(#line)" stroke-width="1.8" opacity="0.44"/>
<rect x="110.0" y="126.00000000000001" width="330.0" height="612.0" rx="38" fill="rgba(255,255,255,0.04)" stroke="rgba(255,255,255,0.08)"/>
<rect x="528.0" y="180.0" width="462.0" height="486.00000000000006" rx="46" fill="rgba(255,255,255,0.05)" stroke="rgba(255,255,255,0.10)"/>

<g opacity="0.8">
  <text x="88.0" y="108.0" fill="rgba(255,255,255,0.70)" font-family="Inter, Arial, sans-serif" font-size="22" letter-spacing="8">RITIK</text>
  <text x="88.0" y="828.0" fill="rgba(255,255,255,0.32)" font-family="Inter, Arial, sans-serif" font-size="18" letter-spacing="5">FICTIONAL DEMO VISUAL</text>
</g>
</svg>